<svg xmlns="http://www.w3.org/2000/svg" width="16" height="16" viewBox="0 0 16 16">
    <path fill="#8592AC" fill-rule="evenodd" d="M8.946.376c4.032 1.418 5.704 6.106 3.518 9.774-.05.085-.096.172-.16.285.091.099.18.203.276.3.942.944 1.889 1.882 2.826 2.83.61.616.638 1.42.083 1.963-.543.53-1.328.5-1.934-.097-.96-.945-1.913-1.898-2.855-2.86-.198-.202-.333-.256-.603-.096-2.346 1.394-5.258 1.207-7.468-.46C.5 10.41-.46 7.623.211 4.996.867 2.426 3.103.426 5.746.042c0 0 1.634-.216 3.2.334zm-2.21 11.44c2.834-.024 5.136-2.35 5.11-5.167-.026-2.822-2.363-5.107-5.195-5.081-2.796.026-5.103 2.377-5.069 5.166.035 2.812 2.36 5.105 5.153 5.081z"/>
</svg>
